<svg width="8192" height="1416" viewBox="0 0 8192 1416" fill="none" xmlns="http://www.w3.org/2000/svg">
<g clip-path="url(#clip0_1_14)">
<path d="M8587.8 837.6C8587.8 837.6 7169 45.4 5702.8 341C4236.6 636.6 3858.3 1322.4 2498.6 1097.7V2174.5H8516.8L8587.8 837.6Z" fill="#FFF1F0"/>
<path d="M8544.5 605.2C8544.5 605.2 7743 1060.9 5715.7 683.8C3688.4 306.7 906.8 -589.2 -224.7 668V2412.4H8623L8544.5 605.2Z" fill="url(#paint0_linear_1_14)"/>
<path d="M8953.1 623C8953.1 623 8104.5 1675.9 5432.9 1267.3C2761.3 858.7 183.9 -477.1 -1277.6 1235.9C-1277.6 1235.9 -1324.7 2618.8 -1277.6 2618.8C-1230.5 2618.8 9094.5 2618.8 9094.5 2618.8L8953.1 623Z" fill="#FFD7D7"/>
</g>
<defs>
<linearGradient id="paint0_linear_1_14" x1="-224.7" y1="1216.64" x2="8623" y2="1216.64" gradientUnits="userSpaceOnUse">
<stop stop-color="#A5845A"/>
<stop offset="0.0919473" stop-color="#BA9D71"/>
<stop offset="0.239" stop-color="#D8BF91"/>
<stop offset="0.3187" stop-color="#E3CC9D"/>
<stop offset="0.5153" stop-color="#CEB386"/>
<stop offset="0.8297" stop-color="#B09166"/>
<stop offset="1" stop-color="#A5845A"/>
</linearGradient>
<clipPath id="clip0_1_14">
<rect width="8192" height="1415.3" fill="white"/>
</clipPath>
</defs>
</svg>
