<svg width="8192" height="1506" viewBox="0 0 8192 1506" fill="none" xmlns="http://www.w3.org/2000/svg">
<path d="M8192 741.5C7945.8 677.1 7066 264.1 5935.1 511.1C3256.3 1096.2 1720.6 382.3 1720.6 382.3C923.8 9.99994 204.1 -3.20005 0 1.59995V34.7999C482.1 -38.3 1302.3 251.4 1794.3 521.5C2465.9 890.2 4405 1257.1 5640.1 728.2C6821.5 222.3 7953.5 826 8192 948.8V741.5Z" fill="#BFA881"/>
<path d="M8192 938.6C7953.6 815.8 6821.5 212.1 5640.1 718C4405.1 1247 2465.9 880.1 1794.2 511.4C1302.3 241.3 482.1 -48.3001 0 24.7999V336C91.4 458.2 442.9 859.3 1146.6 900.4C1978.2 949.1 2202 783 2721.7 989.5C3241.4 1196.2 3253.4 1496.1 4316.8 1491.9C5380.3 1487.8 6747.4 896.2 7439 977.3C7741.9 1012.8 7998.8 1125.2 8191.9 1240.4V938.6H8192Z" fill="#FFD7D7"/>
<path d="M7439.1 967.2C6747.5 886.2 5380.3 1477.7 4316.9 1481.8C3253.4 1485.9 3241.5 1186.1 2721.8 979.4C2202.1 772.7 1978.2 938.9 1146.7 890.3C443 849.2 91.5001 448.3 0.100098 325.9V1505.8H8192V1230.4C7998.9 1115.2 7742.1 1002.8 7439.1 967.2Z" fill="#FFF1F0"/>
<path d="M8192 1446.5C8109.3 1387.8 8020.2 1330.7 7927.5 1276.6C7822.3 1215.4 7711.7 1158.1 7599 1106.2C7340.8 987.5 7071.7 897.4 6799.3 838.6C6719.3 821.4 6637.1 809 6554.9 802.2C6476.2 795.5 6394.7 793.6 6312.9 796.4C6160.9 801.7 6003.4 822.8 5831 861C5509 932.4 5183.3 1053.3 4838.4 1181.3L4836.9 1181.8C4744.6 1216.1 4643.7 1248.4 4537.1 1278C4416.8 1311.3 4292 1340.3 4166.2 1364C3893.2 1415.5 3623.3 1441.5 3362.6 1441.5C3336 1441.5 3309.4 1441.2 3283 1440.7C2939.9 1433.7 2619.9 1380.3 2331.8 1282C1996.7 1167.8 1702.3 991.4 1456.8 758.1C1317.2 625.4 1166.8 508.9 1010 411.8C876.6 329 736.4 259.1 593.6 204C478 159.7 360 124.7 243.1 100.1C159.3 82.2999 77.5001 70.3999 0.100098 64.2999V72.6999C242.4 91.8999 855.6 198.2 1451.3 764.2C1516 825.6 1584.8 883.8 1655.8 937.1C1724.5 988.7 1797.2 1037 1871.8 1081C2013.4 1164.3 2167.4 1234.7 2329.3 1289.9C2618.1 1388.4 2939 1441.9 3282.9 1449.1C3432.2 1452.1 3587 1446.5 3743 1432C3883.3 1419 4026.3 1399 4167.8 1372.2C4293.9 1348.4 4418.9 1319.4 4539.4 1286C4646.2 1256.4 4747.4 1224 4839.9 1189.6L4841.4 1189.1C5186 1061.3 5511.5 940.5 5832.9 869.2C6192.4 789.4 6499 782.4 6797.6 846.9C7468.9 992 7958 1290 8192 1456.7V1446.5Z" fill="#BFA881"/>
</svg>
