<svg width="1500" height="1000" viewBox="0 0 1500 1000" fill="none" xmlns="http://www.w3.org/2000/svg">
<rect width="1500" height="1000" fill="#1E1E1E"/>
<rect width="1500" height="1000" fill="white"/>



      <g id="Cuerpo">
                <path d="M835.207 330.274C833.834 317.148 831.883 303.928 827.682 292.475C823.677 281.536 817.225 270.656 809.619 267.696C802.013 270.656 795.573 281.536 791.556 292.475C787.355 303.928 785.416 317.148 784.031 330.274C778.272 385.235 782.277 444.023 797.962 493.217C804.368 513.315 814.859 513.315 821.265 493.217C836.95 444.023 840.967 385.247 835.207 330.274Z" stroke="black" stroke-width="4" stroke-miterlimit="10" stroke-linecap="round" stroke-linejoin="round"/>
                <path d="M796.854 278.436C794.788 275.277 793.541 271.054 793.472 266.772C793.391 261.426 795.146 256.079 798.089 252.675C801.044 249.282 805.856 246.966 809.619 246.966" stroke="black" stroke-width="4" stroke-miterlimit="10" stroke-linecap="round" stroke-linejoin="round"/>
                <path d="M822.396 278.448C824.462 275.289 825.72 271.066 825.778 266.772C825.858 261.426 824.104 256.079 821.161 252.675C818.206 249.282 813.393 246.966 809.631 246.966" stroke="black" stroke-width="4" stroke-miterlimit="10" stroke-linecap="round" stroke-linejoin="round"/>
                <path d="M799.555 251.212C782.773 215.472 759.066 182.844 731.077 155.071" stroke="black" stroke-width="4" stroke-miterlimit="10" stroke-linecap="round" stroke-linejoin="round"/>
                <path d="M820.445 251.212C837.227 215.472 860.934 182.844 888.911 155.071" stroke="black" stroke-width="4" stroke-miterlimit="10" stroke-linecap="round" stroke-linejoin="round"/>
            </g>

<g id="alaIzquierda">
    <path d="M795.123 282.94C757.658 231.593 716.523 181.955 665.232 144.846C613.952 107.737 551.257 83.8708 488.446 89.0417C473.708 90.2584 456.73 94.8561 451.097 108.719C446.134 120.945 452.378 134.703 459.2 145.98C470.753 165.073 484.465 183.043 492.752 203.808C505.401 235.489 504.374 270.761 507.756 304.758C511.138 338.767 520.879 375.151 547.898 395.589C570.128 412.4 599.755 414.974 627.455 413.465C683.837 410.4 735.706 392.793 781.55 364.212" stroke="black" stroke-width="4" stroke-miterlimit="10" stroke-linecap="round" stroke-linejoin="round"/>
    <path d="M523.106 89.0417C508.368 90.2584 491.39 94.8561 485.757 108.719C480.794 120.945 487.038 134.703 493.86 145.98C505.413 165.073 519.124 183.043 527.411 203.808C540.061 235.489 539.034 270.761 542.416 304.758C545.797 338.767 555.539 375.151 582.558 395.589C595.796 405.603 619.076 410.856 635.592 412.915" stroke="black" stroke-width="4" stroke-miterlimit="10" stroke-linecap="round" stroke-linejoin="round"/>
    <path d="M594.838 412.822C570.335 455.663 571.87 509.291 595.681 550.249C610.512 575.764 632.361 595.84 656.598 612.768C661.319 616.067 664.262 621.437 664.135 627.24C663.974 634.095 664.458 641.056 665.012 647.853C665.601 655.036 666.236 662.255 668.129 669.192C670.01 676.141 673.23 682.857 678.332 687.864C681.448 690.917 685.73 693.397 689.954 692.426C693.982 691.502 696.822 687.641 697.86 683.582C698.899 679.534 698.484 675.264 698.172 671.087C697.779 665.846 697.583 660.605 697.56 655.352C697.537 647.526 705.316 642.249 712.553 644.975C715.023 645.9 717.527 646.718 720.09 647.385C730.662 650.135 742.273 650.158 752.107 645.35C765.98 638.564 774.14 623.215 776.771 607.819C779.403 592.435 777.418 576.677 776.125 561.117C772.547 517.796 777.314 473.656 784.689 430.826" stroke="black" stroke-width="4" stroke-miterlimit="10" stroke-linecap="round" stroke-linejoin="round"/>
    <path d="M780.569 365.78C760.59 379.047 740.553 392.36 722.571 408.282C704.589 424.205 688.615 442.923 678.459 464.823C668.313 486.724 664.32 512.064 670.241 535.508C673.057 546.681 679.417 558.438 690.427 561.281C697.837 563.2 705.893 560.451 711.768 555.502C717.654 550.553 721.613 543.639 724.591 536.503C731.066 520.943 733.293 503.98 737.218 487.566C744.962 455.102 761.34 423.292 781.55 396.899" stroke="black" stroke-width="4" stroke-miterlimit="10" stroke-linecap="round" stroke-linejoin="round"/>
    <path d="M788.059 304.454C761.525 270.118 732.197 233.582 699.361 205.388C666.524 177.193 626.982 155.375 584.209 150.625C576.187 149.736 567.646 149.549 560.548 153.444C548.221 160.206 544.759 177.708 550.056 190.869C555.354 204.019 567.207 213.308 579.58 219.988C588.087 224.586 597.078 228.271 605.215 233.5C613.351 238.73 620.761 245.831 624.085 254.991C628.136 266.175 625.597 278.529 623.774 290.299C621.95 302.068 621.165 315.124 627.94 324.857C632.915 331.994 641.283 336.088 649.754 337.644C658.237 339.212 666.94 338.522 675.527 337.831C711.56 334.942 747.594 332.064 783.627 329.174" stroke="black" stroke-width="4" stroke-miterlimit="10" stroke-linecap="round" stroke-linejoin="round"/>
    <path d="M635.2 413.641C623.601 425.924 616.537 442.186 613.744 458.951C610.951 475.715 612.232 492.994 615.798 509.619C621.5 536.234 634 562.697 656.206 578.022C666.363 585.042 678.251 589.534 687.392 597.864C694.04 603.935 699.061 611.891 706.586 616.793C718.682 624.666 735.175 622.806 747.501 615.307C759.828 607.808 770.712 596.343 777.879 583.708" stroke="black" stroke-width="4" stroke-miterlimit="10" stroke-linecap="round" stroke-linejoin="round"/>
    <path d="M705.166 243.702C691.235 231.289 675.839 219.649 657.856 215.028C651.624 213.425 644.249 212.98 639.517 217.402C636.7 220.035 635.362 224.059 635.5 227.955C635.639 231.839 637.151 235.583 639.286 238.812C645.98 248.931 658.041 253.786 667.009 261.905C671.499 265.965 675.446 271.803 674.142 277.757C673.38 281.244 670.945 284.063 669.133 287.128C666.27 291.96 665.059 298.558 668.463 303.027C671.153 306.548 675.815 307.672 680.121 308.572C704.012 313.579 728.446 318.669 752.984 316.621C757.012 316.282 764.456 316.668 766.314 311.93C768.115 307.344 761.744 302.629 759.135 299.646C751.056 290.451 742.908 281.325 734.505 272.446C725.099 262.478 715.381 252.803 705.166 243.702Z" stroke="black" stroke-width="4" stroke-miterlimit="10" stroke-linecap="round" stroke-linejoin="round"/>
    <path d="M696.291 484.513C692.02 494.141 688.488 504.249 687.565 514.766C687.242 518.381 687.253 522.137 688.523 525.529C689.793 528.922 692.551 531.928 696.071 532.63C700.076 533.426 704.185 531.074 706.701 527.81C709.206 524.546 710.452 520.475 711.653 516.521C719.328 491.357 727.73 466.426 736.871 441.776C739.122 435.705 742.111 429.586 743.854 423.351C746.024 415.547 740.242 422.134 737.622 424.708C729.439 432.792 721.959 441.613 715.311 451.042C707.902 461.524 701.519 472.755 696.291 484.513Z" stroke="black" stroke-width="4" stroke-miterlimit="10" stroke-linecap="round" stroke-linejoin="round"/>
</g>

<g id="alaDerecha">
    <path d="M824.877 282.94C862.342 231.593 903.477 181.955 954.768 144.846C1006.05 107.737 1068.74 83.8708 1131.54 89.0417C1146.29 90.2584 1163.26 94.8561 1168.89 108.719C1173.87 120.945 1167.61 134.703 1160.79 145.98C1149.24 165.073 1135.52 183.043 1127.24 203.808C1114.59 235.489 1115.61 270.761 1112.23 304.758C1108.85 338.767 1099.11 375.151 1072.09 395.589C1049.86 412.4 1020.23 414.974 992.533 413.465C936.151 410.4 884.283 392.793 838.439 364.212" stroke="black" stroke-width="4" stroke-miterlimit="10" stroke-linecap="round" stroke-linejoin="round"/>
    <path d="M1096.88 89.0417C1111.63 90.2584 1128.6 94.8561 1134.23 108.719C1139.19 120.945 1132.95 134.703 1126.13 145.98C1114.58 165.073 1100.86 183.043 1092.58 203.808C1079.93 235.489 1080.95 270.761 1077.57 304.758C1074.19 338.767 1064.45 375.151 1037.43 395.589C1024.19 405.603 1000.91 410.856 984.396 412.915" stroke="black" stroke-width="4" stroke-miterlimit="10" stroke-linecap="round" stroke-linejoin="round"/>
    <path d="M1025.16 412.822C1049.66 455.663 1048.13 509.291 1024.32 550.249C1009.49 575.764 987.639 595.84 963.402 612.768C958.681 616.067 955.738 621.437 955.865 627.24C956.026 634.095 955.542 641.056 954.988 647.853C954.399 655.036 953.764 662.255 951.871 669.192C949.978 676.141 946.77 682.857 941.668 687.864C938.552 690.917 934.27 693.397 930.046 692.426C926.018 691.502 923.178 687.641 922.14 683.582C921.101 679.534 921.516 675.264 921.828 671.087C922.22 665.846 922.417 660.605 922.428 655.352C922.463 647.526 914.672 642.249 907.435 644.975C904.966 645.9 902.461 646.718 899.899 647.385C889.326 650.135 877.715 650.158 867.882 645.35C854.009 638.564 845.849 623.215 843.217 607.819C840.586 592.435 842.571 576.677 843.863 561.117C847.441 517.796 842.675 473.656 835.288 430.826" stroke="black" stroke-width="4" stroke-miterlimit="10" stroke-linecap="round" stroke-linejoin="round"/>
    <path d="M839.431 365.78C859.399 379.047 879.447 392.36 897.429 408.282C915.411 424.205 931.385 442.923 941.541 464.823C951.687 486.724 955.68 512.064 949.759 535.508C946.943 546.681 940.583 558.438 929.561 561.281C922.151 563.2 914.095 560.451 908.22 555.502C902.334 550.553 898.375 543.639 895.397 536.503C888.923 520.943 886.695 503.98 882.771 487.566C875.026 455.102 858.648 423.292 838.439 396.899" stroke="black" stroke-width="4" stroke-miterlimit="10" stroke-linecap="round" stroke-linejoin="round"/>
    <path d="M831.941 304.454C858.475 270.118 887.803 233.582 920.639 205.388C953.476 177.193 993.018 155.375 1035.79 150.625C1043.81 149.736 1052.35 149.549 1059.45 153.444C1071.78 160.206 1075.24 177.72 1069.94 190.869C1064.65 204.019 1052.79 213.308 1040.42 219.988C1031.91 224.586 1022.92 228.271 1014.79 233.5C1006.65 238.73 999.239 245.831 995.915 254.991C991.864 266.175 994.403 278.529 996.226 290.299C998.05 302.068 998.835 315.124 992.06 324.857C987.085 331.994 978.717 336.088 970.246 337.644C961.763 339.212 953.06 338.522 944.473 337.831C908.44 334.942 872.406 332.064 836.373 329.174" stroke="black" stroke-width="4" stroke-miterlimit="10" stroke-linecap="round" stroke-linejoin="round"/>
    <path d="M984.8 413.641C996.399 425.924 1003.46 442.186 1006.26 458.951C1009.05 475.715 1007.77 492.994 1004.2 509.619C998.5 536.234 986 562.697 963.794 578.022C953.637 585.042 941.749 589.534 932.608 597.864C925.96 603.935 920.939 611.891 913.414 616.793C901.318 624.666 884.825 622.806 872.499 615.307C860.172 607.808 849.288 596.343 842.121 583.708" stroke="black" stroke-width="4" stroke-miterlimit="10" stroke-linecap="round" stroke-linejoin="round"/>
    <path d="M914.834 243.702C928.765 231.289 944.161 219.649 962.144 215.028C968.376 213.425 975.751 212.98 980.483 217.402C983.3 220.035 984.638 224.059 984.5 227.955C984.361 231.851 982.849 235.583 980.714 238.812C974.02 248.931 961.959 253.786 952.991 261.905C948.501 265.965 944.554 271.803 945.858 277.757C946.62 281.244 949.055 284.063 950.867 287.128C953.73 291.96 954.941 298.558 951.537 303.027C948.847 306.548 944.185 307.672 939.879 308.572C915.988 313.579 891.554 318.669 867.016 316.621C862.988 316.282 855.532 316.668 853.686 311.93C851.885 307.344 858.256 302.629 860.865 299.646C868.944 290.451 877.092 281.325 885.495 272.446C894.901 262.478 904.619 252.803 914.834 243.702Z" stroke="black" stroke-width="4" stroke-miterlimit="10" stroke-linecap="round" stroke-linejoin="round"/>
    <path d="M923.698 484.513C927.968 494.141 931.5 504.249 932.423 514.766C932.747 518.381 932.735 522.137 931.466 525.529C930.196 528.922 927.437 531.928 923.917 532.63C919.912 533.426 915.803 531.074 913.287 527.81C910.771 524.546 909.536 520.475 908.336 516.521C900.661 491.357 892.258 466.426 883.117 441.776C880.866 435.705 877.877 429.586 876.134 423.351C873.964 415.547 879.747 422.134 882.367 424.708C890.55 432.792 898.029 441.613 904.677 451.042C912.098 461.524 918.481 472.755 923.698 484.513Z" stroke="black" stroke-width="4" stroke-miterlimit="10" stroke-linecap="round" stroke-linejoin="round"/>
</g>

</svg>