<svg width="449" height="475" viewBox="0 0 449 475" fill="none" xmlns="http://www.w3.org/2000/svg">
<path d="M426.079 253.815C424.049 250.684 420.8 248.895 417.551 248.895L269.722 235.028C263.63 234.581 257.945 239.501 256.726 246.211C255.914 251.132 255.102 256.052 254.696 260.525C252.259 276.181 236.014 382.642 235.608 384.879C235.202 388.905 233.171 387.563 229.922 387.115C227.486 386.668 225.455 386.668 223.018 386.668C218.551 386.668 213.677 387.563 209.21 388.457C183.624 395.614 166.973 419.769 171.847 442.583C174.284 453.765 182 463.159 192.559 468.527C199.057 471.658 205.961 473 213.271 473C218.145 473 222.612 472.553 227.486 471.211C238.045 468.08 248.198 462.264 255.508 452.871C262.818 443.925 264.849 433.636 266.473 422.006C267.286 417.533 285.561 297.205 285.967 295.416C286.373 292.285 287.998 292.732 290.435 293.179C293.684 293.627 381 301.678 383.436 302.126C384.249 302.126 385.061 302.573 385.061 303.467C384.249 308.835 372.877 383.537 372.471 384.432C371.659 387.563 368.41 385.774 366.379 385.326C364.349 384.879 361.912 384.879 359.881 384.879C355.414 384.879 350.947 385.774 346.479 386.668C334.296 389.799 323.737 397.404 316.832 407.245C309.522 417.533 306.679 429.61 309.522 440.793C313.583 459.133 331.047 471.211 351.353 471.211C355.82 471.211 360.694 470.763 365.567 469.422C383.03 464.501 397.245 451.529 402.118 435.426C404.555 427.821 427.298 273.945 428.11 269.024C428.516 267.682 428.516 265.893 428.922 264.551C429.328 260.525 428.11 256.499 426.079 253.815Z" stroke="#B99428" stroke-width="3" stroke-miterlimit="10"/>
<path d="M143.049 333.409C121.268 325.32 111.537 305.099 107.829 293.416C106.439 289.821 103.195 287.125 99.0244 287.125C94.8536 287.125 91.6097 289.372 90.2195 293.416C86.5122 305.099 76.7805 325.77 55 333.409C51.2927 334.757 48.9756 337.902 48.9756 341.497C48.9756 345.092 51.2927 348.238 55 349.586C76.7805 357.674 86.5122 377.895 90.2195 389.578C91.6097 393.173 94.8536 395.869 99.0244 395.869C103.195 395.869 106.439 393.622 107.829 389.578C111.537 377.895 121.268 357.225 143.049 349.586C146.756 348.238 149.073 345.092 149.073 341.497C149.073 337.902 146.756 334.757 143.049 333.409Z" stroke="#B99428" stroke-width="3" stroke-miterlimit="10"/>
<path d="M441.024 61.9982C419.244 53.9098 409.512 33.6888 405.805 22.0055C404.415 18.4107 401.171 15.7145 397 15.7145C392.829 15.7145 389.585 17.9613 388.195 22.0055C384.488 33.6888 374.756 54.3591 352.976 61.9982C349.268 63.3462 346.951 66.4917 346.951 70.0866C346.951 73.6814 349.268 76.8269 352.976 78.1749C374.756 86.2633 384.488 106.484 388.195 118.168C389.585 121.762 392.829 124.459 397 124.459C401.171 124.459 404.415 122.212 405.805 118.168C409.512 106.484 419.244 85.814 441.024 78.1749C444.732 76.8269 447.049 73.6814 447.049 70.0866C447.049 66.4917 444.732 63.3462 441.024 61.9982Z" stroke="#B99428" stroke-width="3" stroke-miterlimit="10"/>
<path d="M259.366 128.053C274.659 133.446 281.146 148.274 283.927 156.363C284.854 159.958 288.098 162.204 291.805 162.204C295.512 162.204 298.756 159.958 299.683 156.363C302.463 148.274 308.951 133.895 324.244 128.053C327.488 126.705 329.805 124.009 329.805 120.414C329.805 116.82 327.488 114.123 324.244 112.775C308.951 107.383 302.463 92.5543 299.683 84.4659C298.756 80.8711 295.512 78.6243 291.805 78.6243C288.098 78.6243 284.854 80.8711 283.927 84.4659C281.146 92.5543 274.659 106.934 259.366 112.775C256.122 114.123 253.805 116.82 253.805 120.414C253.805 124.009 256.122 126.705 259.366 128.053Z" stroke="#B99428" stroke-width="3" stroke-miterlimit="10"/>
<path d="M222.666 164.258C220.625 151.345 201.023 19.2026 199.798 12.7461C199.39 9.30261 197.348 5.85915 194.49 4.13742C191.631 1.98526 187.956 1.55482 184.689 2.41569L39.7221 39.8633C33.5967 41.5851 29.5131 47.6111 30.7382 54.498C30.7382 54.9285 50.7477 187.071 50.7477 188.363C51.1561 192.237 48.7059 191.806 45.8474 192.237C43.8056 192.667 41.3555 193.528 39.3137 193.958C34.8218 195.68 30.7382 197.832 26.6546 200.415C4.19494 215.48 -4.38057 243.458 7.05344 262.397C12.7705 271.867 22.571 277.893 34.4134 278.753C46.2558 280.045 58.5065 276.171 68.7155 269.284C78.9244 262.397 87.4999 252.067 91.1751 239.584C91.9918 236.571 92.8086 233.128 93.2169 229.684C93.6253 226.671 93.2169 223.658 93.2169 220.645C92.8086 217.632 73.6158 91.0848 73.6158 88.9327C73.2074 86.7805 73.6157 86.3501 75.2492 85.9196C79.7411 84.6283 166.721 62.2458 167.538 62.2458C169.171 61.8154 169.988 62.2458 170.397 63.9676C172.438 78.6023 181.422 136.711 181.831 139.293C182.647 143.598 180.197 143.167 176.522 144.028C174.072 144.458 172.03 145.319 169.988 146.18C165.496 147.902 161.413 150.054 157.737 152.637C136.911 166.841 127.927 191.806 136.094 210.745C136.094 210.745 137.32 214.189 140.586 218.493L140.995 218.923C147.528 226.671 159.779 236.141 178.972 230.545C185.914 229.254 193.265 226.241 199.39 221.936C208.782 215.91 216.541 206.871 220.625 196.11C222.666 191.376 223.891 185.78 223.891 180.615C224.3 174.158 223.483 169.854 222.666 164.258Z" stroke="#B99428" stroke-width="3" stroke-miterlimit="10"/>
</svg>
